<svg xmlns="http://www.w3.org/2000/svg" xml:space="preserve" width="358.104" height="345.12079" viewBox="0 0 358.104 345.12079"><defs><clipPath id="a" clipPathUnits="userSpaceOnUse"><path d="m834.482 553.571 1.528-41.813 53.254-31.669 52.419 31.659.496 41.823z"/></clipPath></defs><g style="stroke-width:.770021"><g style="fill:#231f20;stroke-width:.777567"><path d="m0 0-5.571-4.931-2.008 1.004s-4.382 20.178-31.135 20.178c-12.969 0-27.03-3.831-34.062-21.545 0 0-7.304-5.387-.549-15.524 0 0-1.189-2.28-1.096-3.925L-89.945 2.194s.547 7.396-2.098 11.049c0 0 5.843 5.383-1.007 12.323 0 0 1.365 4.292-2.102 7.854 0 0 5.207 5.39-.364 12.788-4.839 5.932-16.438 2.009-19.452-.088 0 0-2.828 4.476-12.324 1.001-9.498-3.474-22.098-17.446-22.098-27.304 0-9.86 5.302-15.242 9.135-20.085 3.833-4.84 16.071-15.885 26.302-27.211 10.225-11.323 33.923-38.709 33.923-53.414 0-6.124-4.52-14.391-7.183-19.785-2.666-5.389-6.388-17.583 3.799-19.251 0 0-.996-2.467-6.929-8.662-5.928-6.199-11.722-11.059-11.722-15.592 0-4.527 1.598-5.656 4.596-5.656h31.574s2.732.061 2.732 3.327-2.464 4.132-2.266 7.597c.202 3.46.933 5.465 5.999 10.99 5.061 5.526 16.857 19.457 24.584 29.244 2.002 2.868 6.533 11.262 10.528 20.523 3.995 9.258 8.061 15.524 21.121 26.779C9.859-40.123 26.112-26.864 26.112-26.864s10.398 1.468 18.19 7.329C52.099-13.673 56.624-7.679 56.624-.747c0 6.925-3.663 8.124-3.663 8.124s1.402 6.86-6.859 11.858c0 0-1.466 7.6-11.726 8.931 0 0-10.124 10.518-20.252-1.668 0 0-2.929 1.202-8.395-3.465C.268 18.371-.332 14.239-.534 11.245-.732 8.245 0 0 0 0" style="fill:#231f20;fill-opacity:1;fill-rule:nonzero;stroke:none;stroke-width:.777567" transform="matrix(1.71129 0 0 -1.71821 257.727 87.665)"/></g><g style="stroke-width:.770021"><path d="M0 0c-.256.011 5.693 5.614 15.203.326 3.169-2.031 2.031-8.779-.323-10.243 0 0-1.627 1.708-4.637 2.602C10.243-7.315 8.701-.406 0 0" style="fill:#fff;fill-opacity:1;fill-rule:nonzero;stroke:none;stroke-width:.770021" transform="matrix(1.73156 0 0 -1.73156 64.826 9.376)"/></g><g style="stroke-width:.770021"><path d="M0 0s-3.899 3.741-11.706-.325c-7.807-4.067-12.201-10.328-15.612-14.8-3.413-4.467-4.793-13.33-.649-19.832 4.143-6.507 15.612-18.134 18.052-20.573 2.44-2.446 10.159-3.33 19.103-.082 8.942 3.252 14.229 8.124 14.313 15.363.081 2.605-.334 7.155-1.791 7.889-1.461.734-3.497.649-4.39 3.496 0 0 1.707-1.865 3.577-1.865 1.871 0 3.414 1.621 3.414 4.709 0 3.092-2.841 7.236-7.154 7.236-4.308 0-6.342-1.785-6.342-1.785s1.303 3.495 4.795 3.495c3.496 0 4.555-1.381 5.206-.652.654.731.245 3.979-2.438 6.342-2.685 2.359-9.513 4.066-16.342-2.843 0 0 2.434 6.663 10.813 6.258 0 0-2.443 6.588-10.003 6.588-7.562 0-12.682-7.644-12.682-7.644S-9.517-3.168 0 0" style="fill:#fff;fill-opacity:1;fill-rule:nonzero;stroke:none;stroke-width:.770021" transform="matrix(1.73156 0 0 -1.73156 58.2 8.954)"/></g><g style="stroke-width:.770021"><path d="M0 0s-4.269-15.496-30.649-15.642l12.37-13.798s9.885-4.049 18.206 2.777c8.325 6.822 7.753 12.37 6.119 15.215C4.413-8.603 0 0 0 0" style="fill:#fff;fill-opacity:1;fill-rule:nonzero;stroke:none;stroke-width:.770021" transform="matrix(1.73156 0 0 -1.73156 101.242 84.303)"/></g><g style="stroke-width:.770021"><path d="M0 0s-5.404-13.727-23.039-13.939l.357-1.639s18.274.929 23.889 15.007z" style="fill:#fff;fill-opacity:1;fill-rule:nonzero;stroke:none;stroke-width:.770021" transform="matrix(1.73156 0 0 -1.73156 120.327 121.733)"/></g><g style="stroke-width:.770021"><path d="M0 0s-.382-10.25-4.598-17.047c-4.213-6.799-8.011-14.094-4.273-18.006 3.736-3.916 6.166-3.797 8.598-1.603 2.432 2.196 14.054 13.461 14.054 13.461l-2.252.358 9.429 2.313s-4.388-1.724-7.471-4.806a2382 2382 0 0 1-8.245-8.304s-1.72-2.016 2.612-3.614c4.329-1.602 13.522-2.61 16.662.471 3.143 3.085 11.923 12.456 16.369 19.929 4.447 7.472 7.417 13.107 7.417 13.107s-7.653-5.515-12.22-7.591l.237 3.853-2.49-.652-.415-4.15S20.368-13.469 12.36-9.908l.355 2.253-2.547.95-.951-2.493z" style="fill:#fff;fill-opacity:1;fill-rule:nonzero;stroke:none;stroke-width:.770021" transform="matrix(1.73156 0 0 -1.73156 124.483 224.088)"/></g><g style="stroke-width:.770021"><path d="M0 0s7.253-3.359 16.665-3.692c0 0-7.392-8.403-9.612-14.051 0 0-.336-.209-1.881 1.409-1.547 1.617-3.292 2.961-6.116 3.229-2.825.264-6.053.13-9.615-.944-3.565-1.072-5.712-1.544-5.712-1.544s1.879 3.627 6.718 7.998C-4.712-3.223-1.416-.139 0 0" style="fill:#fff;fill-opacity:1;fill-rule:nonzero;stroke:none;stroke-width:.770021" transform="matrix(1.73156 0 0 -1.73156 130.763 288.882)"/></g><g style="stroke-width:.770021"><path d="M0 0c2.556 0 8.269-1.079 9.815-3.092 1.545-2.015 1.344-3.831.808-4.237-.537-.401-1.881 1.749-6.724 1.749-4.84 0-7.393-.272-8.536-.81-1.14-.533-2.149 1.283-1.074 3.298C-4.637-1.079-2.421 0 0 0" style="fill:#fff;fill-opacity:1;fill-rule:nonzero;stroke:none;stroke-width:.770021" transform="matrix(1.73156 0 0 -1.73156 124 317.635)"/></g><g style="stroke-width:.770021"><path d="M0 0c2.486 0 9.544-2.226 9.61-4.578.067-2.349-1.345-2.079-3.429-2.079h-28.497s-2.624-.067-2.624 2.22c0 2.285.469 3.358 1.749 3.358 1.275 0 2.352-.805 6.855-.805s5.511-.536 9.005.472C-3.831-.403-1.814 0 0 0" style="fill:#fff;fill-opacity:1;fill-rule:nonzero;stroke:none;stroke-width:.770021" transform="matrix(1.73156 0 0 -1.73156 129.36 329.853)"/></g><g style="stroke-width:.770021"><path d="m0 0 90.787 97.534 2.25-2.091z" style="fill:#231f20;fill-opacity:1;fill-rule:nonzero;stroke:none;stroke-width:.770021" transform="matrix(1.73156 0 0 -1.73156 157.051 318.755)"/></g><g style="stroke-width:.770021"><path d="m0 0 80.663 56.242 1.927-2.415Z" style="fill:#231f20;fill-opacity:1;fill-rule:nonzero;stroke:none;stroke-width:.770021" transform="matrix(1.73156 0 0 -1.73156 186.95 296.502)"/></g><g style="stroke-width:.770021"><path d="m0 0-45.471 87.415 2.408 1.286z" style="fill:#231f20;fill-opacity:1;fill-rule:nonzero;stroke:none;stroke-width:.770021" transform="matrix(1.73156 0 0 -1.73156 94.725 279.531)"/></g><g style="stroke-width:.770021"><path d="m0 0-28.117 32.776 2.25 1.449z" style="fill:#231f20;fill-opacity:1;fill-rule:nonzero;stroke:none;stroke-width:.770021" transform="matrix(1.73156 0 0 -1.73156 97.226 297.888)"/></g><g style="stroke-width:.770021"><path d="M0 0s1.752-5.84 6.503-10.422c4.751-4.586 8.34-6.92 8.005-10.59-.333-3.67-2.333-15.926-2.333-15.926h1s1.837 5.581 2.502 11.672c.668 6.087 1.251 7.595-4.669 12.262C5.084-8.338 2.249-2.835 1.581.668Z" style="fill:#fff;fill-opacity:1;fill-rule:nonzero;stroke:none;stroke-width:.770021" transform="matrix(1.73156 0 0 -1.73156 136.967 174.39)"/></g><g style="stroke-width:.770021"><path d="M0 0c.253-.025.167-1.332.167-1.332S-6.751.835-9.003-5.001c-2.255-5.84-4.169-13.427-4.169-13.427l-1.503.167 4.672 14.425S-8.258.923 0 0" style="fill:#fff;fill-opacity:1;fill-rule:nonzero;stroke:none;stroke-width:.770021" transform="matrix(1.73156 0 0 -1.73156 198.187 206.731)"/></g><g style="stroke-width:.770021"><path d="m0 0-3.837-3.67s9.923-1.672 10.422-9.428C7.087-20.85-3.916-23.354-3.916-23.354s3.333-4.837 3.25-10.593l4.417-5.502 18.848 15.513S18.346-7.502 0 0" style="fill:#fff;fill-opacity:1;fill-rule:nonzero;stroke:none;stroke-width:.770021" transform="matrix(1.73156 0 0 -1.73156 261.587 88.746)"/></g><g style="stroke-width:.770021"><path d="M0 0c0-.831-.668-1.501-1.501-1.501C-2.332-1.501-3-.831-3 0s.668 1.498 1.499 1.498C-.668 1.498 0 .83 0 0" style="fill:#001e4c;fill-opacity:1;fill-rule:nonzero;stroke:none;stroke-width:.770021" transform="matrix(1.73156 0 0 -1.73156 102.888 95.396)"/></g><g style="stroke-width:.770021"><path d="M0 0c0-.831-.67-1.501-1.501-1.501a1.498 1.498 0 1 0 0 2.999C-.67 1.498 0 .83 0 0" style="fill:#001e4c;fill-opacity:1;fill-rule:nonzero;stroke:none;stroke-width:.770021" transform="matrix(1.73156 0 0 -1.73156 269.152 95.396)"/></g><g style="stroke-width:.770021"><path d="M0 0c0-.833-.675-1.502-1.503-1.502a1.5 1.5 0 1 0 0 3.001C-.675 1.499 0 .829 0 0" style="fill:#001e4c;fill-opacity:1;fill-rule:nonzero;stroke:none;stroke-width:.770021" transform="matrix(1.73156 0 0 -1.73156 285.113 110.354)"/></g><g style="stroke-width:.770021"><path d="M0 0a1.502 1.502 0 1 0-3.004 0A1.502 1.502 0 0 0 0 0" style="fill:#001e4c;fill-opacity:1;fill-rule:nonzero;stroke:none;stroke-width:.770021" transform="matrix(1.73156 0 0 -1.73156 296.828 126.065)"/></g><g style="stroke-width:.770021"><path d="M0 0a1.501 1.501 0 1 0-3.002 0A1.5 1.5 0 1 0 0 0" style="fill:#001e4c;fill-opacity:1;fill-rule:nonzero;stroke:none;stroke-width:.770021" transform="matrix(1.73156 0 0 -1.73156 87.15 109.4)"/></g><g style="stroke-width:.770021"><path d="M0 0c0-.832-.67-1.5-1.503-1.5-.828 0-1.498.668-1.498 1.5 0 .83.67 1.5 1.498 1.5C-.67 1.5 0 .83 0 0" style="fill:#001e4c;fill-opacity:1;fill-rule:nonzero;stroke:none;stroke-width:.770021" transform="matrix(1.73156 0 0 -1.73156 63.904 115.615)"/></g><g style="stroke-width:.770021"><path d="M0 0s-2.987 14.085-23.118 24.342c0 0-1.303 8.038-.382 13.015.918 4.973 5.054 8.421 6.663 9.724 1.601 1.297 5.816 1.371 9.871-.848 4.056-2.221 12.327-9.109 9.953-13.857-2.378-4.742-14.929-1.373-14.929-1.373s4.208-4.597 15.693-1.461c0 0-.382-3.896 1.299-5.81 1.684-1.919 5.208-2.452 5.208-2.452s.537-4.204 4.824-4.362c4.283-.155 10.333 4.284 10.333 4.284l-.308.611s-7.278-5.589-10.643-3.523c-3.364 2.071-2.371 6.743 2.298 10.033 4.671 3.289 8.121 2.99 10.415.69 2.294-2.299 1.609-9.112-2.222-14.777C21.125 8.575 8.191.616 0 0" style="fill:#fff;fill-opacity:1;fill-rule:nonzero;stroke:none;stroke-width:.770021" transform="matrix(1.73156 0 0 -1.73156 303.832 128.485)"/></g><g style="stroke-width:.770021"><path d="M0 0s-4.364 1.299-8.803-2.068c-4.441-3.364-5.512-6.733-5.512-6.733s-.766-.844-2.298-.459c-1.531.38-5.586 3.368-2.371 9.109 3.213 5.737 8.422 8.035 10.562 8.876 2.144.844 3.977 0 5.204-1.071C-1.99 6.583.385 2.3 0 0" style="fill:#fff;fill-opacity:1;fill-rule:nonzero;stroke:none;stroke-width:.770021" transform="matrix(1.73156 0 0 -1.73156 347.571 72.813)"/></g><g style="stroke-width:.770021"><path d="M0 0s-1.297 7.118-9.105 7.118c0 0-2.296-1.375-4.517-3.597l-4.134-4.13s6.655-3.603 3.443-11.333c0 0 2.916 4.899 6.738 7.73C-3.749-1.38 0 0 0 0" style="fill:#fff;fill-opacity:1;fill-rule:nonzero;stroke:none;stroke-width:.770021" transform="matrix(1.73156 0 0 -1.73156 335.102 53.725)"/></g><g style="stroke-width:.770021"><path d="M0 0s-6.201-4.67-7.962-7.501c0 0-6.812 4.821-9.413 5.202 0 0 2.905 5.288 8.723 5.362C-2.832 3.137 0 0 0 0" style="fill:#fff;fill-opacity:1;fill-rule:nonzero;stroke:none;stroke-width:.770021" transform="matrix(1.73156 0 0 -1.73156 316.552 39.542)"/></g><g style="stroke-width:.770021"><path d="M0 0s-4.997.089-14.2-1.665-12.888-2.626-19.372-2.626c-6.482 0-7.891.612-9.905.699-2.012.086-5.169-2.895-5.169-2.895s.965 10.083-8.063 10.083-11.216-10.694-4.116-14.814c0 0-3.857-.968-3.857-9.117s1.134-18.586 11.129-24.628c9.992-6.05 15.599-10.078 24.542-12.182 8.939-2.104 13.673-.877 19.808 4.292C-3.07-47.685-.611-42.42 3.07-37.164c3.683 5.26 6.659 14.639.871 19.985 0 0-.697 2.629-.436 6.223C3.769-7.366 4.822-4.907 0 0" style="fill:#fff;fill-opacity:1;fill-rule:nonzero;stroke:none;stroke-width:.770021" transform="matrix(1.73156 0 0 -1.73156 243.969 101.622)"/></g><g style="stroke-width:.770021"><path d="M0 0c-6.013 2.876-9.329 8.792-9.329 16.648 0 17.426 15.853 25.267 27.112 25.267 12.71 0 13.351-11.632 13.351-13.963 0-4.626-.785-8.795-.794-8.836l-.746.138c.008.046.784 4.145.784 8.698 0 2.206-.609 13.207-12.595 13.207-10.943 0-26.352-7.604-26.352-24.511 0-7.551 3.158-13.22 8.898-15.963z" style="fill:#001e4c;fill-opacity:1;fill-rule:nonzero;stroke:none;stroke-width:.770021" transform="matrix(1.73156 0 0 -1.73156 195.571 202.386)"/></g><g style="stroke-width:.770021"><path d="M0 0c-21.872 4.896-27.654 21.555-27.709 21.723l.506.865C-27.147 22.426-21.267 5.541.165.741Z" style="fill:#001e4c;fill-opacity:1;fill-rule:nonzero;stroke:none;stroke-width:.770021" transform="matrix(1.73156 0 0 -1.73156 180.234 165.857)"/></g><g style="stroke-width:.770021"><path d="m0 0-.759.051c.011.16.279 4.028 1.332 7.28.996 3.081-1.112 8.722-1.136 8.776l.714.271c.086-.246 2.217-5.953 1.14-9.285C.274 3.938.002.042 0 0" style="fill:#001e4c;fill-opacity:1;fill-rule:nonzero;stroke:none;stroke-width:.770021" transform="matrix(1.73156 0 0 -1.73156 229.754 130.805)"/></g><g style="stroke-width:.770021"><path d="M0 0s-19.282 3.069-28.746 6.223l-.528-1.489S-10.867-.263 0 0" style="fill:#001e4c;fill-opacity:1;fill-rule:nonzero;stroke:none;stroke-width:.770021" transform="matrix(1.73156 0 0 -1.73156 225.608 125.448)"/></g><g style="stroke-width:.770021"><path d="M0 0s-8.479 1.01-11.564 10.496h-.771S-11.326 2.311-.89-.592z" style="fill:#001e4c;fill-opacity:1;fill-rule:nonzero;stroke:none;stroke-width:.770021" transform="matrix(1.73156 0 0 -1.73156 202.26 136.603)"/></g><g style="stroke-width:.770021"><path d="M0 0s.294-2.077.648-2.495l8.006-.354L2.07-4.867s3.144-2.368 5.992-2.368c2.844 0 5.279 2.547 5.215 4.798z" style="fill:#001e4c;fill-opacity:1;fill-rule:nonzero;stroke:none;stroke-width:.770021" transform="matrix(1.73156 0 0 -1.73156 193.233 120.578)"/></g><g style="stroke-width:.770021"><path d="M0 0s8.479 2.134 10.972 5.812l.296-2.434S4.861 0 0-.534Z" style="fill:#001e4c;fill-opacity:1;fill-rule:nonzero;stroke:none;stroke-width:.770021" transform="matrix(1.73156 0 0 -1.73156 233.072 126.128)"/></g><g style="stroke-width:.770021"><path d="M0 0s-.892-5.812-4.567-7.534l.235-.355S-1.069-5.991 0-2.019z" style="fill:#001e4c;fill-opacity:1;fill-rule:nonzero;stroke:none;stroke-width:.770021" transform="matrix(1.73156 0 0 -1.73156 250.736 123.662)"/></g><g style="stroke-width:.770021"><path d="M0 0s-.238-6.346-2.668-6.346c-2.434 0-2.73 1.42-2.73 1.42l3.143 1.9-4.803.473z" style="fill:#001e4c;fill-opacity:1;fill-rule:nonzero;stroke:none;stroke-width:.770021" transform="matrix(1.73156 0 0 -1.73156 248.166 121.812)"/></g><g style="stroke-width:.770021"><path d="M0 0a.887.887 0 0 0-1.777 0A.89.89 0 1 0 0 0" style="fill:#fff;fill-opacity:1;fill-rule:nonzero;stroke:none;stroke-width:.770021" transform="matrix(1.73156 0 0 -1.73156 209.346 130.137)"/></g><g style="stroke-width:.770021"><path d="M0 0c0-.672-.545-1.219-1.213-1.219A1.214 1.214 0 1 0 0 0" style="fill:#001e4c;fill-opacity:1;fill-rule:nonzero;stroke:none;stroke-width:.770021" transform="matrix(1.73156 0 0 -1.73156 178.232 155.853)"/></g><g style="stroke-width:.770021"><path d="M0 0a1.217 1.217 0 1 0-2.432 0c0 .67.543 1.211 1.215 1.211C-.547 1.211 0 .67 0 0" style="fill:#001e4c;fill-opacity:1;fill-rule:nonzero;stroke:none;stroke-width:.770021" transform="matrix(1.73156 0 0 -1.73156 141.778 127.1)"/></g><g style="stroke-width:.770021"><path d="M0 0a1.215 1.215 0 1 0-2.428 0A1.215 1.215 0 0 0 0 0" style="fill:#001e4c;fill-opacity:1;fill-rule:nonzero;stroke:none;stroke-width:.770021" transform="matrix(1.73156 0 0 -1.73156 174.433 168.59)"/></g><g style="stroke-width:.770021"><path d="M0 0c2.371.112 5.757-1.604 5.757-3.202 0-1.603-2.494-3.44-3.916-3.737-1.423-.296-5.695 2.908-5.933 4.33C-4.327-1.187-2.551-.119 0 0" style="fill:#001e4c;fill-opacity:1;fill-rule:nonzero;stroke:none;stroke-width:.770021" transform="matrix(1.73156 0 0 -1.73156 232.348 137.014)"/></g><g style="stroke-width:.770021"><path d="M0 0s.952-2.786.179-5.099h-.712s.89 2.253-.238 4.803z" style="fill:#001e4c;fill-opacity:1;fill-rule:nonzero;stroke:none;stroke-width:.770021" transform="matrix(1.73156 0 0 -1.73156 236.045 147.284)"/></g><g style="stroke-width:.770021"><path d="M0 0c3.075.203 5.338-.531 5.338-3.559 0-3.022-1.662-2.548-5.454-8.066-3.797-5.512-6.586-8.6-10.082-8.6-3.501 0-5.99 1.9-5.99 8.721C-16.188-4.686-7.354-.473 0 0" style="fill:#001e4c;fill-opacity:1;fill-rule:nonzero;stroke:none;stroke-width:.770021" transform="matrix(1.73156 0 0 -1.73156 231.12 154.369)"/></g><g style="stroke-width:.770021"><path d="M0 0s-.353-7.296 4.567-7.65c1.72-.18 3.739.711 4.986 2.314C9.553-5.336 9.432 0 0 0" style="fill:#fff;fill-opacity:1;fill-rule:nonzero;stroke:none;stroke-width:.770021" transform="matrix(1.73156 0 0 -1.73156 204.415 175.112)"/></g><g style="stroke-width:.770021"><path d="M0 0s1.066-2.968 4.149-3.025c3.086-.061 4.45 1.183 4.45 1.183s-1.541-.653-4.151-.294C1.837-1.783.771-1.187 0 0" style="fill:#001e4c;fill-opacity:1;fill-rule:nonzero;stroke:none;stroke-width:.770021" transform="matrix(1.73156 0 0 -1.73156 202.47 189.793)"/></g><g style="stroke-width:.770021"><path d="m0 0-.475-1.482 2.67-2.965 1.125.889z" style="fill:#fff;fill-opacity:1;fill-rule:nonzero;stroke:none;stroke-width:.770021" transform="matrix(1.73156 0 0 -1.73156 257.304 156.112)"/></g><g style="stroke-width:.770021"><path d="m0 0 .522-2.905-.388-.622.576-.426.549-3.061-1.632-2.271-6.44-1.153-.553 3.081.732.134-.816 4.538-.726-.126-.553 3.084 6.638 1.19z" style="fill:#fff;fill-opacity:1;fill-rule:nonzero;stroke:none;stroke-width:.770021" transform="matrix(1.73156 0 0 -1.73156 222.502 73.067)"/></g><g style="stroke-width:.770021"><path d="m0 0 .497-2.759.084-.568.105-.48.371-3.089-1.514-2.138-6.517-1.165-.851.613 1.187 2.503-.816 4.541-.747-.134L-8.756.42l6.548 1.175z" style="fill:#fff;fill-opacity:1;fill-rule:nonzero;stroke:none;stroke-width:.770021" transform="matrix(1.73156 0 0 -1.73156 224.266 74.535)"/></g><g style="stroke-width:.770021"><path d="m0 0 .53-2.952-1.552-2.175-6.265-1.123-.817.597 1.061 2.252-.883 4.932.077.064-1.292 2.5 6.377 1.144 2.096-1.511.482-2.685z" style="fill:#110f29;fill-opacity:1;fill-rule:nonzero;stroke:none;stroke-width:.770021" transform="matrix(1.73156 0 0 -1.73156 225.04 80.996)"/></g><g style="stroke-width:.770021"><path d="m0 0 .978 2.092-.932 5.181-.742-.133-.442 2.471L5.037 10.7l2.142-1.463.462-2.598-.457-.704.663-.453.244-1.361-.106-.004.252-1.66L6.883.578.735-.527Z" style="fill:#110f29;fill-opacity:1;fill-rule:nonzero;stroke:none;stroke-width:.770021" transform="matrix(1.73156 0 0 -1.73156 211.308 90.62)"/></g><g style="stroke-width:.770021"><path d="m0 0 .533-2.979-1.544-2.166-6.264-1.123-.489 2.712.731.132-.885 4.935-.73-.134-.486 2.701 6.376 1.144 2.094-1.52.479-2.681z" style="fill:#ed1c24;fill-opacity:1;fill-rule:nonzero;stroke:none;stroke-width:.770021" transform="matrix(1.73156 0 0 -1.73156 223.606 79.932)"/></g><g style="stroke-width:.770021"><path d="m0 0-.343 1.923-1.91 1.319-5.112-.914.23-1.295.731.13 1.131-6.335-.729-.135.234-1.308 5.041.906L.676-3.768.294-1.646z" style="fill:#fff;fill-opacity:1;fill-rule:nonzero;stroke:none;stroke-width:.770021" transform="matrix(1.73156 0 0 -1.73156 221.986 77.9)"/></g><g style="stroke-width:.770021"><path d="m0 0-.637 3.553-.121.723 2.162.387.967-.756.192-1.076.166-.92.214-1.189-.68-1.069L.146-.729Z" style="fill:#ed1c24;fill-opacity:1;fill-rule:nonzero;stroke:none;stroke-width:.770021" transform="matrix(1.73156 0 0 -1.73156 215.024 83.989)"/></g><g clip-path="url(#a)" style="stroke-width:.358521" transform="matrix(3.71668 0 0 -3.7213 -3129.04 2044.078)"><g style="stroke-width:.358521"><path d="M0 0c-.473-2.035-1.842-3.808-3.858-4.993-1.913-1.125-4.232-1.585-5.765-1.15l-4.512 1.444 3.209-3.565C-9.312-9.98-1.139-20.313 1.041-25.092c.838-1.837 1.17-3.547 1.17-5.143 0-3.392-1.487-6.27-2.764-8.738-.816-1.582-1.523-2.948-1.764-4.26a5 5 0 0 1-.091-.959c0-1.506.656-2.919 1.793-3.759.455-.34.969-.561 1.514-.691-5.393-5.899-6.929-7.969-6.929-9.199 0-.301.092-.551.237-.801.897-1.479 7.422-3.42 10.424-3.089 1.822.2 2.492 1.11 2.73 1.83 1.492 4.48 5.729 9.15 9.467 13.28 2.084 2.303 4.055 4.476 5.485 6.513 2.845 4.047 5.083 8.77 6.718 12.219.793 1.673 1.477 3.119 1.969 3.915 1.638 2.66 6.051 6.298 9.272 8.956l2.79 2.319-.597.939C40.724-8.929 34.113-1.562 31.375.013l-.795.455-.697-.596c-3.286-2.82-7.161-5.906-11.002-7.422-5.19-2.052-10.707-1.131-11.647-.195C6.008-6.524 3.937-2.841 2.426.271L.522 3.707Z" style="fill:#231f20;fill-opacity:1;fill-rule:nonzero;stroke:none;stroke-width:.358521" transform="translate(872.041 519.238)"/></g><g style="stroke-width:.358521"><path d="M0 0c-2.427-.309-4.425-1.663-5.252-2.796C-6.245-4.151-7.25-6.13-6.405-7.86c.662-1.358 2.258-2.09 4.741-2.174 3.962-.139 6.007 1.284 7.026 2.502.987 1.18 1.425 2.712 1.14 3.996C5.95-1.037 2.632.334 0 0" style="fill:#231f20;fill-opacity:1;fill-rule:nonzero;stroke:none;stroke-width:.358521" transform="translate(861.98 549.243)"/></g><g style="stroke-width:.358521"><path d="M0 0c-2.382-2.465-6.366-6.594-4.142-11.832 1.95-4.596 9.305-12.411 11.803-13.098 1.988-.548 5.277-.114 8.377 1.102 3.535 1.388 5.938 3.434 6.598 5.617.381 1.254.521 2.333.521 3.254 0 1.466-.359 2.524-.694 3.249a4.05 4.05 0 0 1 .886 2.095c.017.15.03.322.03.512 0 .893-.282 2.188-1.53 3.459.002.051.007.104.007.151 0 2.862-1.343 4.637-3.994 5.296-.767 1.982-2.179 3.656-5.933 3.722-.673.757-1.591 1.235-2.662 1.354C6.657 5.175 3.278 3.396 0 0" style="fill:#231f20;fill-opacity:1;fill-rule:nonzero;stroke:none;stroke-width:.358521" transform="translate(846.685 544.053)"/></g><g style="stroke-width:.358521"><path d="M0 0c-2.515-.016-4.394-1.755-5.328-2.698-3.094.094-6.105-4.067-6.409-4.84-.504-1.281-.489-3.637.06-8.131l.108-.878.86-.218c1.84-.463 4.114-2.171 6.237-4.682 1.966-2.325 3.013-4.424 3.045-4.946l.035-1.449 1.444.183c5.495.776 12.739 5.162 14.353 10.215a6.4 6.4 0 0 1 .317 1.955c0 1.452-.543 2.814-1.599 3.98-.034 2.381-1.433 4.51-3.414 5.286-.271 1.327-1.08 2.585-2.282 3.433-.955.676-2.011.983-2.97.906C3.037-.629 1.541.008 0 0" style="fill:#231f20;fill-opacity:1;fill-rule:nonzero;stroke:none;stroke-width:.358521" transform="translate(923.519 541.452)"/></g><g style="stroke-width:.358521"><path d="m0 0-.228-.188C-10.644-8.941-15.011-12.432-15.62-12.777l.142.06a1.38 1.38 0 0 1-.935-1.152c-.108-.87.803-2.612 2.706-5.181 1.099-1.485 3.276-4.188 5.503-5.605 2.107-1.347 3.536-1.021 4.359-.511 1.373.852 6.02 4.414 9.903 7.492 8.279 6.569 8.451 7.142 8.589 7.601.149.487.374 1.23-2.632 4.402-1.774 1.875-3.776 3.593-5.489 4.712C3.666.913 1.47 1.236 0 0" style="fill:#231f20;fill-opacity:1;fill-rule:nonzero;stroke:none;stroke-width:.358521" transform="translate(913.355 527.813)"/></g><g style="stroke-width:.358521"><path d="M0 0c-.55-.96-.513-2.004.093-2.87.804-1.148 3.745-4.261 8.135-8.884 2.716-2.861 5.794-6.104 6.196-6.701.511-.764 1.68-1.371 4.352.074 3.457 1.87 7.637 6.09 6.112 9.622C23.8-6.25 21.37-1.723 19.595 1.584c-.957 1.785-1.951 3.63-2.086 3.981-.13.332-.5.902-1.522.976C13.5 6.721 2.075 3.635 0 0" style="fill:#231f20;fill-opacity:1;fill-rule:nonzero;stroke:none;stroke-width:.358521" transform="translate(851.226 524.615)"/></g><g style="stroke-width:.358521"><path d="M0 0c.576.789 2.252 2.01 4.371 2.28 2.118.268 4.702-.861 5.073-2.536.369-1.673-1.071-5.134-6.855-4.932C-3.194-4.987-.909-1.238 0 0" style="fill:#fff;fill-opacity:1;fill-rule:nonzero;stroke:none;stroke-width:.358521" transform="translate(857.773 545.686)"/></g><g style="stroke-width:.358521"><path d="M0 0c1.521-2.169 13.359-14.135 14.347-15.608.983-1.475 9.923 4.479 8.196 8.472-1.725 3.99-6.965 13.26-7.397 14.365C14.718 8.335-2.514 3.576 0 0" style="fill:#fff;fill-opacity:1;fill-rule:nonzero;stroke:none;stroke-width:.358521" transform="translate(852.38 522.483)"/></g><g style="stroke-width:.358521"><path d="M0 0c-2.434-2.521-6.11-6.333-4.029-11.236 1.859-4.386 9.092-12.133 11.439-12.78 1.881-.516 5.03-.092 8.027 1.084 3.373 1.324 5.657 3.242 6.27 5.263.361 1.19.494 2.214.494 3.083 0 1.613-.459 2.694-.804 3.36.529.507.902 1.252 1.001 2.061.016.131.028.278.028.443 0 .821-.28 2.041-1.539 3.235.007.126.015.261.015.382 0 2.692-1.279 4.261-3.851 4.806-.789 2.222-2.164 3.673-5.778 3.662-.592.771-1.439 1.234-2.467 1.352C6.367 4.988 3.158 3.271 0 0" style="fill:#231f20;fill-opacity:1;fill-rule:nonzero;stroke:none;stroke-width:.358521" transform="translate(847.084 543.67)"/></g><g style="stroke-width:.358521"><path d="M0 0c-2.459-.014-4.243-1.82-5.112-2.716-2.867.35-5.855-3.819-6.114-4.472-.462-1.173-.431-3.525.095-7.865l.06-.499.494-.126c1.974-.496 4.381-2.301 6.598-4.949 2-2.387 3.106-4.592 3.106-5.203v-.848l.841.119c5.332.75 12.356 4.976 13.907 9.833q.294.932.294 1.81c0 1.373-.544 2.639-1.609 3.74q.002.049.003.1c0 2.086-1.201 4.35-3.347 4.993-.162 1.3-.938 2.562-2.113 3.395-.932.659-1.965.94-2.851.789C2.886-.636 1.457.007 0 0" style="fill:#231f20;fill-opacity:1;fill-rule:nonzero;stroke:none;stroke-width:.358521" transform="translate(923.523 540.9)"/></g><g style="stroke-width:.358521"><path d="M0 0c-2.57-2.663-5.729-6.079-3.881-10.438 1.85-4.359 8.973-11.809 10.956-12.355 3.515-.968 12.179 1.842 13.392 5.848 1.17 3.867-.187 5.709-.555 6.446 1.234.615 2.159 3.132-.308 5.217.277 3.577-1.572 4.547-3.651 4.867-.695 2.21-1.773 3.668-5.595 3.547C8.832 5.663 4.627 4.789 0 0" style="fill:#fff;fill-opacity:1;fill-rule:nonzero;stroke:none;stroke-width:.358521" transform="translate(847.615 543.16)"/></g><g style="stroke-width:.358521"><path d="M0 0c2.44 1.508 17.66 13.445 17.938 14.365.275.922-9.432 11.359-12.574 8.719C3.846 21.81-9.707 10.407-10.539 10.128-11.375 9.852-3.42-2.12 0 0" style="fill:#fff;fill-opacity:1;fill-rule:nonzero;stroke:none;stroke-width:.358521" transform="translate(908.826 503.744)"/></g><g style="stroke-width:.358521"><path d="M0 0c-2.459-.014-4.243-1.82-5.112-2.716-2.867.35-5.855-3.819-6.114-4.472-.462-1.173-.431-3.525.095-7.865l.06-.499.494-.126c1.974-.496 4.381-2.301 6.598-4.949 2-2.387 3.106-4.592 3.106-5.203v-.848l.841.119c5.332.75 12.356 4.976 13.907 9.833q.294.932.294 1.81c0 1.373-.544 2.639-1.609 3.74q.002.049.003.1c0 2.086-1.201 4.35-3.347 4.993-.162 1.3-.938 2.562-2.113 3.395-.932.659-1.965.94-2.851.789C2.886-.636 1.457.007 0 0" style="fill:#231f20;fill-opacity:1;fill-rule:nonzero;stroke:none;stroke-width:.358521" transform="translate(923.523 540.9)"/></g><g style="stroke-width:.358521"><path d="M0 0c4.945-1.243 10.265-8.979 10.265-10.867 7.61 1.074 17.489 9.148 11.94 14.367.187 2.162-1.172 4.479-3.297 4.787.064 2.549-2.742 4.607-4.468 3.96-4.438 4.453-7.954.124-8.909-.797-2.341.706-5.414-3.296-5.67-3.944C-.647 6.217-.369 3.039 0 0" style="fill:#fff;fill-opacity:1;fill-rule:nonzero;stroke:none;stroke-width:.358521" transform="translate(913.125 525.938)"/></g><g style="stroke-width:.358521"><path d="M0 0c-.496-2.138-1.927-3.992-4.033-5.227-1.996-1.173-4.429-1.652-6.054-1.188l-3.209.913 2.28-2.428c1.677-1.787 9.793-12.02 12.034-16.927.865-1.899 1.207-3.661 1.207-5.303 0-3.462-1.512-6.389-2.811-8.9-.805-1.556-1.498-2.899-1.73-4.16a5 5 0 0 1-.084-.893c0-1.391.602-2.687 1.645-3.466.585-.431 1.28-.67 2.026-.731-5.714-6.219-7.28-8.319-7.28-9.45 0-.229.064-.429.17-.609.746-1.231 7.089-3.24 10.068-2.91 1.626.179 2.214.96 2.421 1.58 1.514 4.55 5.778 9.25 9.541 13.406 2.079 2.296 4.041 4.461 5.457 6.478 2.827 4.024 5.059 8.73 6.686 12.166.799 1.681 1.489 3.136 1.989 3.95 1.672 2.713 6.111 6.371 9.353 9.046l2.535 2.113-.422.67C40.064-9.064 33.53-1.778 30.829-.226l-.567.328-.5-.427c-3.308-2.839-7.215-5.949-11.107-7.486C13.237-9.95 7.631-8.939 6.614-7.925 5.27-6.588 3.145-2.717 1.732.193L.59 2.547Z" style="fill:#231f20;fill-opacity:1;fill-rule:nonzero;stroke:none;stroke-width:.358521" transform="translate(872.402 519.156)"/></g><g style="stroke-width:.358521"><path d="M0 0c-1.293-5.586-7.788-8.075-11.241-7.092C-9.454-8.995-1.299-19.32.957-24.266c4.009-8.782-2.527-14.921-3.266-18.912-.494-2.664 1.727-5.253 5.332-3.402C-.118-49.99-6.5-56.76-5.943-57.681c.552-.92 9.959-4.099 10.816-1.519 2.402 7.229 11.113 14.423 15.117 20.119 4.205 5.986 7.088 13.544 8.646 16.071 2.125 3.455 8.319 8.197 11.466 10.868-1.757 2.854-8.231 9.947-10.634 11.328-3.329-2.856-7.332-6.049-11.373-7.645-5.363-2.117-11.558-1.381-13.038.094C3.578-6.893 1.355-2.793 0 0" style="fill:#fff;fill-opacity:1;fill-rule:nonzero;stroke:none;stroke-width:.358521" transform="translate(873.303 518.947)"/></g><g style="stroke-width:.358521"><path d="M0 0a.616.616 0 0 0-1.23 0A.614.614 0 0 0 0 0" style="fill:#231f20;fill-opacity:1;fill-rule:nonzero;stroke:none;stroke-width:.358521" transform="translate(859.092 518.414)"/></g><g style="stroke-width:.358521"><path d="M0 0a.614.614 0 1 0-1.227-.003A.614.614 0 0 0 0 0" style="fill:#231f20;fill-opacity:1;fill-rule:nonzero;stroke:none;stroke-width:.358521" transform="translate(865.254 520.134)"/></g><g style="stroke-width:.358521"><path d="M0 0a.61.61 0 0 0-.613-.614.613.613 0 1 0 0 1.225A.61.61 0 0 0 0 0" style="fill:#231f20;fill-opacity:1;fill-rule:nonzero;stroke:none;stroke-width:.358521" transform="translate(869.496 523.764)"/></g><g style="stroke-width:.358521"><path d="M0 0a.27.27 0 0 1 .082-.38.275.275 0 0 1 .383.081c.524.807 2.556 2.419 5.173 1.95a.28.28 0 0 1 .323.223.273.273 0 0 1-.224.318C2.847 2.714.588.904 0 0" style="fill:#231f20;fill-opacity:1;fill-rule:nonzero;stroke:none;stroke-width:.358521" transform="translate(858.472 541.032)"/></g><g style="stroke-width:.358521"><path d="M0 0c-2.834-.173-5.056-2.843-5.472-3.375a.276.276 0 0 1 .048-.388.28.28 0 0 1 .389.048C-3.955-2.332-1.979-.674.033-.552c.154.009.27.14.262.293A.28.28 0 0 1 0 0" style="fill:#231f20;fill-opacity:1;fill-rule:nonzero;stroke:none;stroke-width:.358521" transform="translate(858.326 546.838)"/></g><g style="stroke-width:.358521"><path d="M0 0a.277.277 0 0 1 .358-.421C1.457.51 3.646.648 5.028-.644a.278.278 0 0 1 .381.405C3.81 1.25 1.276 1.082 0 0" style="fill:#231f20;fill-opacity:1;fill-rule:nonzero;stroke:none;stroke-width:.358521" transform="translate(862.638 538.142)"/></g><g style="stroke-width:.358521"><path d="M0 0a.479.479 0 1 0-.96.003A.479.479 0 0 0 0 0" style="fill:#231f20;fill-opacity:1;fill-rule:nonzero;stroke:none;stroke-width:.358521" transform="translate(918.613 519.767)"/></g><g style="stroke-width:.358521"><path d="M0 0a.48.48 0 1 0-.96.001A.48.48 0 0 0 0 0" style="fill:#231f20;fill-opacity:1;fill-rule:nonzero;stroke:none;stroke-width:.358521" transform="translate(914.236 523.85)"/></g><g style="stroke-width:.358521"><path d="M0 0a.48.48 0 1 0-.959.003A.48.48 0 0 0 0 0" style="fill:#231f20;fill-opacity:1;fill-rule:nonzero;stroke:none;stroke-width:.358521" transform="translate(921.554 515.66)"/></g><g style="stroke-width:.358521"><path d="M0 0c-.714-.267-1.285-.399-1.914-.451a.274.274 0 0 1-.252-.298.274.274 0 0 1 .297-.252c.681.055 1.299.199 2.063.483a.273.273 0 0 1 .162.355A.274.274 0 0 1 0 0" style="fill:#231f20;fill-opacity:1;fill-rule:nonzero;stroke:none;stroke-width:.358521" transform="translate(925.923 529.389)"/></g><g style="stroke-width:.358521"><path d="M0 0c-.591-.266-1.943-1.462-3.519-2.882l-1.096-.977a.28.28 0 0 1-.027-.396.275.275 0 0 1 .387-.026l1.109.988C-2.025-2.282-.334-.756.229-.503c.139.064.203.227.139.365A.276.276 0 0 1 0 0" style="fill:#231f20;fill-opacity:1;fill-rule:nonzero;stroke:none;stroke-width:.358521" transform="translate(927.693 538.928)"/></g><g style="stroke-width:.358521"><path d="M0 0c-1.728-.066-7.045-3.327-7.045-7.059 0-1.893 1.782-2.822 3.437-2.886a.276.276 0 1 1 .024.551c-1.401.055-2.907.808-2.907 2.335 0 3.37 4.963 6.448 6.513 6.507a.277.277 0 0 1 .265.289A.28.28 0 0 1 0 0" style="fill:#231f20;fill-opacity:1;fill-rule:nonzero;stroke:none;stroke-width:.358521" transform="translate(932.606 534.809)"/></g><g style="stroke-width:.358521"><path d="M0 0c-1.168-.675-2.966-2.337-3.308-3.918-.13-.612-.033-1.153.295-1.608a2.54 2.54 0 0 1 1.836-1.066c1.326-.142 2.996.588 4.586 2.002a.277.277 0 0 1 .017.392.27.27 0 0 1-.388.019C1.569-5.489.051-6.169-1.119-6.041a1.97 1.97 0 0 0-1.444.836c-.235.327-.3.712-.2 1.171C-2.462-2.633-.77-1.083.28-.479c1.488.861 2.834.502 3.534-.067a.28.28 0 0 1 .392.04.28.28 0 0 1-.041.391C3.327.562 1.733 1.001 0 0" style="fill:#231f20;fill-opacity:1;fill-rule:nonzero;stroke:none;stroke-width:.358521" transform="translate(932.11 529.308)"/></g><g style="stroke-width:.358521"><path d="M0 0c-1.058-2.944-5.153-7.005-10.963-6.814a.28.28 0 0 1-.287-.267.276.276 0 0 1 .269-.285C-4.894-7.566-.588-3.287.522-.186a.275.275 0 0 1-.168.355A.275.275 0 0 1 0 0" style="fill:#231f20;fill-opacity:1;fill-rule:nonzero;stroke:none;stroke-width:.358521" transform="translate(874.437 516.997)"/></g><g style="stroke-width:.358521"><path d="M0 0a.28.28 0 0 1 0-.391c2.236-2.246 9.611-9.686 10.601-11.26a.277.277 0 0 1 .381-.087c.131.08.17.25.09.38C10.051-9.734 2.644-2.256.394-.002A.28.28 0 0 1 0 0" style="fill:#231f20;fill-opacity:1;fill-rule:nonzero;stroke:none;stroke-width:.358521" transform="translate(901.418 517.29)"/></g><g style="stroke-width:.358521"><path d="M0 0c.465.935.899 1.839 1.303 2.682C-.578.227-3.674-2.389-8.689-2.969c-8.803-1.02-12.33 3.06-14.076 5.547q.096-.654.128-1.286c2.036-2.717 5.823-6.022 12.165-5.98C-5.998-4.658-2.49-2.413 0 0" style="fill:#231f20;fill-opacity:1;fill-rule:nonzero;stroke:none;stroke-width:.358521" transform="translate(898.162 488.294)"/></g><g style="stroke-width:.358521"><path d="M0 0c1.273-1.819 5.152-7.35 14.655-6.248 6.072.704 9.702 4.886 10.67 6.149l-.293.223c-.948-1.235-4.49-5.319-10.42-6.005C5.331-6.958 1.545-1.562.303.21Z" style="fill:#231f20;fill-opacity:1;fill-rule:nonzero;stroke:none;stroke-width:.358521" transform="translate(874.857 491.39)"/></g><g style="stroke-width:.358521"><path d="M0 0c1.461-1.952 5.633-6.49 12.748-6.444 5.381.038 9.473 3.441 10.981 4.903l-.255.264c-1.478-1.43-5.482-4.761-10.728-4.796C5.799-6.12 1.724-1.687.295.222Z" style="fill:#231f20;fill-opacity:1;fill-rule:nonzero;stroke:none;stroke-width:.358521" transform="translate(874.955 489.864)"/></g><g style="stroke-width:.358521"><path d="m0 0 .288 1.599c-.338.125-.873.334-1.18.478L-1.349.593" style="fill:#fff;fill-opacity:1;fill-rule:nonzero;stroke:none;stroke-width:.358521" transform="translate(881.142 484.465)"/></g><g style="stroke-width:.358521"><path d="M0 0a.2.2 0 0 1-.104-.114l-.455-1.487a.185.185 0 0 1 .355-.107S.101-.72.191-.421c.258-.112.58-.24.857-.345-.046-.248-.261-1.448-.261-1.448q-.003-.019-.004-.033c0-.088.064-.165.153-.181a.19.19 0 0 1 .216.149L1.437-.68a.184.184 0 0 1-.117.204C.966-.343.443-.14.154-.003A.18.18 0 0 1 0 0" style="fill:#231f20;fill-opacity:1;fill-rule:nonzero;stroke:none;stroke-width:.358521" transform="translate(880.174 486.712)"/></g><g style="stroke-width:.358521"><path d="m0 0 .172 2.255a14 14 0 0 0-1.186-.317l-.31-2.152" style="fill:#fff;fill-opacity:1;fill-rule:nonzero;stroke:none;stroke-width:.358521" transform="translate(892.205 483.667)"/></g><g style="stroke-width:.358521"><path d="M0 0c-.381-.12-.775-.225-1.17-.312a.18.18 0 0 1-.142-.154l-.311-2.155a.187.187 0 0 1 .157-.209.19.19 0 0 1 .209.158l.294 2.033c.276.064.543.14.813.217C-.179-.827-.3-2.417-.3-2.417v-.014c0-.095.074-.176.171-.185a.19.19 0 0 1 .2.171l.17 2.256a.2.2 0 0 1-.071.157A.19.19 0 0 1 0 0" style="fill:#231f20;fill-opacity:1;fill-rule:nonzero;stroke:none;stroke-width:.358521" transform="translate(892.322 486.098)"/></g><g style="stroke-width:.358521"><path d="M0 0a.27.27 0 0 1 .203-.333c.84-.202 7.008-3.394 7.373-6.001.143-1.013-.074-1.768-.643-2.246-1.021-.851-3.179-.81-6.084.12A.277.277 0 0 1 .5-8.638a.274.274 0 0 1 .178-.346c3.138-1.006 5.426-1.011 6.611-.017.715.598 1.006 1.547.836 2.74C7.697-3.194 1.008.042.332.201A.27.27 0 0 1 0 0" style="fill:#231f20;fill-opacity:1;fill-rule:nonzero;stroke:none;stroke-width:.358521" transform="translate(917.709 537.944)"/></g><g style="stroke-width:.358521"><path d="M0 0c2.293-1.601.849-7.486-.363-10.713l.518-.194c.349.931 3.328 9.149.162 11.36-5.5 3.841-5.834 8.476-5.242 10.392l-.53.161C-6.336 8.155-5.004 3.495 0 0" style="fill:#231f20;fill-opacity:1;fill-rule:nonzero;stroke:none;stroke-width:.358521" transform="translate(884.51 495.528)"/></g><g style="stroke-width:.358521"><path d="M0 0c-1.379-.135-2.807-.275-3.258-1.627l-.486-1.412C-4.455-5.09-5.264-7.414-5.49-9.14l.552-.071c.217 1.668 1.016 3.964 1.719 5.993l.488 1.415C-2.394-.791-1.258-.679.056-.548c1.211.119 2.459.243 3.177 1.149l-.436.341C2.228.222 1.096.109 0 0" style="fill:#231f20;fill-opacity:1;fill-rule:nonzero;stroke:none;stroke-width:.358521" transform="translate(893.873 493.894)"/></g><g style="stroke-width:.358521"><path d="m0 0 2.489-.615 1.548-1.851-3.298.868Z" style="fill:#fff;fill-opacity:1;fill-rule:nonzero;stroke:none;stroke-width:.358521" transform="translate(882.033 497.49)"/></g><g style="stroke-width:.358521"><path d="M0 0c.029-.012.045-.017.076-.027.152-.054.184-.032.277.185.094.212.092.251-.06.306C.26.473.246.479.213.491A20 20 0 0 1 0 0m-.119.774L.459.577C.922.42.858.219.76.014.66-.195.551-.375.111-.209c-.221.082-.332.123-.548.207.12.308.183.464.318.776" style="fill:#171624;fill-opacity:1;fill-rule:nonzero;stroke:none;stroke-width:.358521" transform="translate(880.08 497.298)"/></g><g style="stroke-width:.358521"><path d="M0 0c.123-.044.164.011.272.229.11.215.125.284 0 .323C.147.593.106.541 0 .32-.11.105-.121.044 0 0m.347.693C.765.556.849.389.694.085.537-.22.336-.288-.069-.142c-.403.147-.485.311-.343.61.136.297.335.367.759.225" style="fill:#171624;fill-opacity:1;fill-rule:nonzero;stroke:none;stroke-width:.358521" transform="translate(881.312 496.823)"/></g><g style="stroke-width:.358521"><path d="M0 0c.125-.044.169.012.291.234.119.22.142.286.011.327C.175.603.128.547.009.326-.108.103-.127.04 0 0m.384.706C.817.569.897.403.722.096.548-.212.337-.284-.079-.146c-.416.143-.496.311-.337.614.155.303.369.374.8.238" style="fill:#171624;fill-opacity:1;fill-rule:nonzero;stroke:none;stroke-width:.358521" transform="translate(882.481 496.42)"/></g><g style="stroke-width:.358521"><path d="M0 0q.006.01.011.02c.03.05.011.102-.069.126-.093.026-.155.005-.177-.032-.096-.166.651-.293.466-.596C.127-.66-.123-.68-.491-.563c-.347.109-.504.234-.408.404.009.011.009.016.018.029.159-.054.241-.078.403-.129q-.003-.01-.011-.02c-.039-.069.002-.113.086-.137.084-.031.155-.007.179.037.099.163-.614.289-.446.581.095.166.323.203.689.094C.397.183.509.06.401-.118.239-.074.16-.048 0 0" style="fill:#171624;fill-opacity:1;fill-rule:nonzero;stroke:none;stroke-width:.358521" transform="translate(884.023 496.47)"/></g><g style="stroke-width:.358521"><path d="M0 0q-.001.003-.002.002l-.344-.321.243-.069C-.06-.232-.039-.154 0 0m-.17.247C.051.186.16.155.383.096.334-.284.31-.47.256-.846l-.457.124c.017.062.027.093.048.159l-.343.097-.131-.133c-.183.051-.272.078-.455.133.359.283.541.426.912.713" style="fill:#171624;fill-opacity:1;fill-rule:nonzero;stroke:none;stroke-width:.358521" transform="translate(885.166 496.222)"/></g><g style="stroke-width:.358521"><path d="M0 0c.198-.053.298-.076.498-.125l-.06-.586q0-.002.006-.003c.138.207.205.313.345.519.166-.039.252-.062.418-.097l-.569-.839-.481.116.052.587q-.003.003-.006.002l-.341-.513c-.161.04-.243.06-.403.104.214.334.323.502.541.835" style="fill:#171624;fill-opacity:1;fill-rule:nonzero;stroke:none;stroke-width:.358521" transform="translate(886.019 496.194)"/></g><g style="stroke-width:.358521"><path d="M0 0a77 77 0 0 0-.196-1.205c-.101-.067-.151-.102-.248-.169.067-.12.099-.18.166-.303a41 41 0 0 0-.256-1.344 38 38 0 0 1-.845-.532c-.873.432-1.282.683-2.007 1.236-.077.182-.116.271-.196.453.164.215.255.325.455.554.026.854.039 1.279.058 2.128.013.003.02.004.033.005-.111.515-.171.771-.296 1.278A41 41 0 0 1-.659 1.079C-.39.646-.256.431 0 0" style="fill:#171624;fill-opacity:1;fill-rule:nonzero;stroke:none;stroke-width:.358521" transform="translate(883.227 494.331)"/></g><g style="stroke-width:.358521"><path d="M0 0c.153.199.239.302.422.521.03.892.041 1.338.061 2.232-.113.049-.168.077-.281.13.007.424.007.635.011 1.057a41 41 0 0 1 2.58-.999c.28-.429.42-.643.685-1.07A93 93 0 0 0 3.293.704C3.181.631 3.125.592 3.015.521L3.2.184c-.041-.246-.066-.371-.11-.618-.017.009-.025.015-.04.024-.063-.297-.093-.447-.16-.748-.304-.188-.453-.279-.735-.457C1.298-1.189.894-.946.177-.407.108-.244.071-.164 0 0" style="fill:#fff;fill-opacity:1;fill-rule:nonzero;stroke:none;stroke-width:.358521" transform="translate(879.685 492.467)"/></g><g style="stroke-width:.358521"><path d="M0 0c-.067-.479-.104-.718-.177-1.2a9 9 0 0 1-.233-.156c.063-.123.097-.181.158-.304-.085-.536-.13-.805-.229-1.347-.347-.216-.515-.32-.832-.521-.877.441-1.286.694-2.015 1.243 0 .459-.004.688-.004 1.149l.235-.148c.013.844.017 1.266.024 2.111-.112.051-.166.075-.276.128-.004.457-.005.687-.007 1.143A48 48 0 0 1-.675 1.082C-.397.65-.263.432 0 0" style="fill:#171624;fill-opacity:1;fill-rule:nonzero;stroke:none;stroke-width:.358521" transform="translate(882.974 494.752)"/></g><g style="stroke-width:.358521"><path d="M0 0c-.24.387-.364.58-.615.966-.883.318-1.31.486-2.125.825l-.004-.551c.11-.05.168-.074.28-.123-.025-1.092-.034-1.639-.073-2.735l-.239.148-.006-.558c.62-.426.954-.622 1.667-.98.283.173.428.265.74.453.063.384.092.577.149.96-.145.212-.22.321-.369.535l.478.202c.048.344.069.515.117.858" style="fill:#ed1c24;fill-opacity:1;fill-rule:nonzero;stroke:none;stroke-width:.358521" transform="translate(882.64 494.644)"/></g><g style="stroke-width:.358521"><path d="M0 0c.092-.112.135-.169.223-.279C.19-.572.176-.718.145-1.012l-.236-.07c-.334.139-.496.21-.819.356.028.426.041.638.063 1.061C-.513.2-.341.132 0 0" style="fill:#171624;fill-opacity:1;fill-rule:nonzero;stroke:none;stroke-width:.358521" transform="translate(881.693 495.14)"/></g><g style="stroke-width:.358521"><path d="M0 0c.086-.118.129-.18.213-.299a41 41 0 0 0-.101-.776c-.106-.037-.159-.053-.261-.091-.286.142-.428.215-.7.366.034.462.047.692.078 1.152C-.468.21-.313.139 0 0" style="fill:#171624;fill-opacity:1;fill-rule:nonzero;stroke:none;stroke-width:.358521" transform="translate(881.519 493.502)"/></g><g style="stroke-width:.358521"><path d="m0 0-.5.2C-.513.022-.52-.069-.531-.25c.194-.082.289-.124.488-.204.016.183.025.272.043.454" style="fill:#fff;fill-opacity:1;fill-rule:nonzero;stroke:none;stroke-width:.358521" transform="translate(881.611 494.85)"/></g><g style="stroke-width:.358521"><path d="M0 0c-.187.087-.279.13-.461.217C-.479 0-.486-.107-.506-.324c.174-.089.266-.133.445-.219.026.218.036.327.061.543" style="fill:#fff;fill-opacity:1;fill-rule:nonzero;stroke:none;stroke-width:.358521" transform="translate(881.447 493.203)"/></g><g style="stroke-width:.358521"><path d="M0 0c-.146-.579-.218-.871-.384-1.457-.52.103-.776.16-1.28.285.028.111.045.166.077.276-.247.06-.368.093-.608.159.211.008.317.012.527.024.191-.322.282-.481.461-.797a36 36 0 0 0-.328-1.185c-.429.099-.64.153-1.056.272-.055-.218-.082-.328-.143-.548a15 15 0 0 1 .561-.152c.429.177.652.267 1.101.456l.207-.387a31 31 0 0 0-.56-1.598c-1.323.264-1.957.458-3.118.952-.07.174-.105.262-.182.438.276.016.419.027.707.054.224 1.172.306 1.743.45 2.881l.173-.118c1.181.296 1.821.465 3.14.83C-.152.229-.102.152 0 0" style="fill:#171624;fill-opacity:1;fill-rule:nonzero;stroke:none;stroke-width:.358521" transform="translate(887.15 494.129)"/></g><g style="stroke-width:.358521"><path d="m0 0 .203-.354A43 43 0 0 0-.1-1.445c-.424.098-.637.154-1.053.273-.068-.272-.105-.406-.177-.678.267-.079.398-.115.67-.184l1.039.443.164-.309C.351-2.489.248-2.79.021-3.405c-1.292.263-1.91.455-3.045.931-.066.159-.099.24-.168.398.276.24.421.363.717.609.204.949.291 1.415.455 2.344-.125.039-.183.059-.306.101 1.304.164 2.019.273 3.494.535.095-.143.144-.218.232-.359a39 39 0 0 0-.355-1.367A23 23 0 0 0 .004.018z" style="fill:#fff;fill-opacity:1;fill-rule:nonzero;stroke:none;stroke-width:.358521" transform="translate(885.67 492.96)"/></g><g style="stroke-width:.358521"><path d="M0 0c.439-.128.658-.189 1.107-.3-.037-.16-.055-.241-.098-.403-.443.109-.66.169-1.093.297.035.164.054.243.084.406" style="fill:#fff;fill-opacity:1;fill-rule:nonzero;stroke:none;stroke-width:.358521" transform="translate(884.46 493.39)"/></g><g style="stroke-width:.358521"><path d="M0 0c-.14-.582-.209-.873-.364-1.46-.515.11-.774.171-1.276.302.026.11.039.166.063.278-.244.064-.365.096-.608.165l-.099-.494A28 28 0 0 1-1.185-1.5a33 33 0 0 0-.306-1.183c-.429.105-.642.162-1.06.287-.052-.217-.078-.327-.132-.544.222-.068.334-.099.562-.162.037.136.054.206.089.34.478-.129.722-.186 1.215-.29a31 31 0 0 0-.519-1.591c-1.33.287-1.968.492-3.134.997.102.498.151.747.239 1.239.111-.044.168-.067.281-.108.174.897.252 1.341.39 2.223-.123.042-.185.062-.308.105.073.482.105.724.174 1.205C-2.269.551-1.522.334 0 0" style="fill:#171624;fill-opacity:1;fill-rule:nonzero;stroke:none;stroke-width:.358521" transform="translate(886.895 494.514)"/></g><g style="stroke-width:.358521"><path d="M0 0a30 30 0 0 0-3.016.835C-3.05.604-3.066.488-3.104.26c.124-.043.186-.064.315-.105a57 57 0 0 0-.537-2.862l-.281.106a32 32 0 0 0-.123-.597c.99-.398 1.519-.565 2.617-.818.127.38.188.57.301.945-.238.053-.359.081-.594.139l-.098-.339c-.464.121-.693.188-1.139.333.116.475.168.713.27 1.184.42-.127.633-.188 1.066-.3.055.222.084.331.137.551-.439.113-.658.174-1.084.303.094.451.137.677.223 1.124.496-.147.748-.215 1.256-.34C-.8-.527-.812-.582-.839-.692c.252-.065.38-.094.634-.152.086.338.127.506.205.844" style="fill:#ed1c24;fill-opacity:1;fill-rule:nonzero;stroke:none;stroke-width:.358521" transform="translate(886.486 494.281)"/></g><g style="stroke-width:.358521"><path d="M0 0c-.577.034-.864.061-1.431.134a29 29 0 0 0-.586-1.565c.545-.064.821-.089 1.377-.114.282.633.409.939.64 1.545" style="fill:#fff;fill-opacity:1;fill-rule:nonzero;stroke:none;stroke-width:.358521" transform="translate(889.438 491.456)"/></g><g style="stroke-width:.358521"><path d="M0 0c-.588-.1-.881-.136-1.471-.186a23 23 0 0 0-.74-1.49c.571.061.857.102 1.429.21.347.607.5.897.782 1.466" style="fill:#fff;fill-opacity:1;fill-rule:nonzero;stroke:none;stroke-width:.358521" transform="translate(893.94 491.674)"/></g><g style="stroke-width:.358521"><path d="M0 0a14 14 0 0 0-1.435-.529c-.302-.555-.466-.84-.852-1.446.563.19.847.297 1.405.538C-.483-.834-.31-.55 0 0" style="fill:#fff;fill-opacity:1;fill-rule:nonzero;stroke:none;stroke-width:.358521" transform="translate(897.765 492.65)"/></g><g style="stroke-width:.358521"><path d="M0 0a15 15 0 0 0-1.468-.184 24 24 0 0 0-.739-1.49c.567.061.854.102 1.429.209.345.608.5.898.778 1.465" style="fill:#fff;fill-opacity:1;fill-rule:nonzero;stroke:none;stroke-width:.358521" transform="translate(893.935 491.672)"/></g><g style="stroke-width:.358521"><path d="M0 0c-.57-.235-.855-.344-1.434-.526-.302-.555-.47-.839-.854-1.445.565.19.847.296 1.403.536C-.484-.831-.311-.547 0 0" style="fill:#fff;fill-opacity:1;fill-rule:nonzero;stroke:none;stroke-width:.358521" transform="translate(897.762 492.647)"/></g><g style="stroke-width:.358521"><path d="M0 0c.052-1.25.06-1.852-.102-3.12.094.057.141.088.236.147l.178-.306c-.228-.479-.349-.72-.617-1.222a15 15 0 0 0-1.945.017c-.053.138-.082.209-.139.349.391.332.584.498.973.826.013.108.017.16.023.268-.363.021-.544.037-.902.073-.076-.101-.115-.152-.19-.255.116-.011.172-.018.289-.03.028-.489.034-.736.016-1.236-.953.056-1.422.115-2.328.292-.063.156-.098.234-.166.393.394.321.592.479.994.798C-2.303-1.625-1.61-.97-.248.331-.147.196-.1.13 0 0" style="fill:#171624;fill-opacity:1;fill-rule:nonzero;stroke:none;stroke-width:.358521" transform="translate(890.336 493.653)"/></g><g style="stroke-width:.358521"><path d="M0 0c.054-1.327.062-1.962-.129-3.318l.277.308c.064-.108.096-.164.156-.271A26 26 0 0 0-.26-4.41a16 16 0 0 0-2.101.037c-.005.261-.014.389-.03.645.45.148.678.225 1.137.384.015.158.02.238.029.398-.416.023-.623.04-1.033.084-.106-.151-.162-.226-.271-.379.124-.013.185-.021.308-.033a10 10 0 0 0 .075-1.114c-.917.058-1.366.115-2.237.282-.058.144-.09.217-.151.362.388.27.584.407.983.679C-2.204-1.674-1.534-1.016-.215.291z" style="fill:#fff;fill-opacity:1;fill-rule:nonzero;stroke:none;stroke-width:.358521" transform="translate(890.262 493.626)"/></g><g style="stroke-width:.358521"><path d="M0 0a18 18 0 0 0-1.433.136 27 27 0 0 0-.586-1.565c.545-.064.821-.089 1.377-.114C-.358-.91-.233-.604 0 0" style="fill:#fff;fill-opacity:1;fill-rule:nonzero;stroke:none;stroke-width:.358521" transform="translate(889.44 491.454)"/></g><g style="stroke-width:.358521"><path d="M0 0c.072-1.331.093-1.966-.059-3.305.176-.003.262-.003.441 0a30 30 0 0 0-.58-1.211 16 16 0 0 0-1.957.053c.213.484.309.722.493 1.187l.308-.026c.008.108.012.162.018.269-.364.028-.549.048-.907.091-.072-.102-.111-.152-.183-.252a5 5 0 0 1 .287-.035c-.176-.468-.27-.705-.477-1.192-.739.079-1.103.139-1.81.285.183.507.264.757.42 1.251.151-.03.226-.046.379-.073.904 1.302 1.336 1.921 2.189 3.151C-.864.101-.577.062 0 0" style="fill:#171624;fill-opacity:1;fill-rule:nonzero;stroke:none;stroke-width:.358521" transform="translate(890.088 493.985)"/></g><g style="stroke-width:.358521"><path d="M0 0a22 22 0 0 0-.923.121c-.868-1.233-1.306-1.855-2.237-3.17-.115.019-.176.032-.291.055-.08-.24-.123-.36-.211-.605.483-.089.726-.128 1.219-.189.1.241.146.36.234.597-.16.021-.244.031-.402.054l.602.806c.548-.074.82-.102 1.378-.142a14 14 0 0 0-.05-.85c-.166.01-.25.014-.416.025a29 29 0 0 0-.254-.592c.531-.034.797-.044 1.338-.041.113.24.168.355.273.586-.139 0-.209 0-.349.002C.08-1.98.067-1.338 0 0" style="fill:#ed1c24;fill-opacity:1;fill-rule:nonzero;stroke:none;stroke-width:.358521" transform="translate(889.738 493.717)"/></g><g style="stroke-width:.358521"><path d="M0 0c.03-.683.036-1.024.011-1.709-.494.039-.74.063-1.227.132.464.645.686.962 1.134 1.588z" style="fill:#171624;fill-opacity:1;fill-rule:nonzero;stroke:none;stroke-width:.358521" transform="translate(889.14 493.293)"/></g><g style="stroke-width:.358521"><path d="M0 0c-.13-.18-.194-.268-.325-.445.131-.016.2-.025.331-.037 0 .191 0 .288-.006.482" style="fill:#fff;fill-opacity:1;fill-rule:nonzero;stroke:none;stroke-width:.358521" transform="translate(888.81 492.411)"/></g><g style="stroke-width:.358521"><path d="M0 0c.068-.087.102-.13.164-.212-.237-.411-.369-.62-.651-1.059a15 15 0 0 0-1.802-.41 7 7 0 0 1-.235.54c.391.196.585.295.973.497.01.247.014.371.008.614a11 11 0 0 0-.428-.057c-.133-.266-.203-.398-.346-.673.104.015.155.021.26.037a7 7 0 0 0-.117-.938 15 15 0 0 0-2.291-.268l-.147.313 1.057.799c.448.906.631 1.334.965 2.177a15 15 0 0 0-.371-.006c.16.408.232.611.373 1.011 1.199-.014 1.801.016 2.99.187.223-.212.332-.313.545-.504A19 19 0 0 0 .441.967C.175.767.041.665-.23.466c.019-.238.025-.36.025-.601z" style="fill:#fff;fill-opacity:1;fill-rule:nonzero;stroke:none;stroke-width:.358521" transform="translate(894.715 491.153)"/></g><g style="stroke-width:.358521"><path d="M0 0c-.588-.1-.881-.136-1.471-.186-.266-.579-.41-.875-.74-1.49.574.061.857.102 1.429.209.347.608.5.898.782 1.467" style="fill:#fff;fill-opacity:1;fill-rule:nonzero;stroke:none;stroke-width:.358521" transform="translate(893.94 491.674)"/></g><g style="stroke-width:.358521"><path d="M0 0a15 15 0 0 0-1.435-.527 20 20 0 0 0-.852-1.445c.563.19.849.297 1.405.537C-.483-.831-.31-.548 0 0" style="fill:#fff;fill-opacity:1;fill-rule:nonzero;stroke:none;stroke-width:.358521" transform="translate(897.765 492.647)"/></g><g style="stroke-width:.358521"><path d="M0 0c.066-.085.1-.127.16-.21a23 23 0 0 0-.728-1.186 15 15 0 0 0-1.901-.431 6 6 0 0 1-.256.56c.404.228.605.344 1.006.578.01.209.01.31.006.515l-.315-.044c-.113-.221-.168-.333-.29-.561.101.015.155.021.257.038a8 8 0 0 0-.182-1.047 15.4 15.4 0 0 0-2.386-.28c-.058.126-.09.187-.155.313.442.369.666.553 1.098.912.422.864.598 1.271.916 2.076l-.141.021c.088.432.123.644.192 1.073 1.239-.007 1.864.03 3.09.218.236-.222.351-.325.568-.526C.744 1.569.64 1.343.406.876L-.23.401c.003-.232.003-.349-.005-.587.092.075.141.112.235.186" style="fill:#171624;fill-opacity:1;fill-rule:nonzero;stroke:none;stroke-width:.358521" transform="translate(894.8 491.228)"/></g><g style="stroke-width:.358521"><path d="M0 0a21 21 0 0 0-.864-1.409 69 69 0 0 0-1.375-1.203 15 15 0 0 0-1.7-.679c-.104.21-.165.316-.302.527.194.326.287.485.457.794.565.154.848.244 1.407.447-.088-.15-.133-.228-.228-.382.235.086.349.131.582.227.15.244.224.365.357.6a14 14 0 0 0-1.377-.492 17 17 0 0 1-.352.383c.238.468.346.695.543 1.144.467.351.697.53 1.152.892.735.213 1.1.342 1.817.652.201-.11.299-.159.485-.253C.484.998.425.873.291.616A14 14 0 0 0-1.041.018c.052.1.074.149.125.252a11 11 0 0 0-.629-.234c-.071-.149-.11-.226-.187-.376.569.199.851.314 1.409.569C-.186.134-.123.089 0 0" style="fill:#171624;fill-opacity:1;fill-rule:nonzero;stroke:none;stroke-width:.358521" transform="translate(899.05 493.394)"/></g><g style="stroke-width:.358521"><path d="M0 0a21 21 0 0 0-.864-1.409 69 69 0 0 0-1.375-1.203 15 15 0 0 0-1.7-.679c-.104.21-.165.316-.302.527.194.326.287.485.457.794.565.154.848.244 1.407.447-.088-.15-.133-.228-.228-.382.235.086.349.131.582.227.15.244.224.365.357.6a14 14 0 0 0-1.377-.492 17 17 0 0 1-.352.383c.238.468.346.695.543 1.144.467.351.697.53 1.152.892a13 13 0 0 1 1.817.656c.203-.109.301-.159.487-.251A14 14 0 0 0 .291.616 14 14 0 0 0-1.041.018c.052.1.074.149.125.252a11 11 0 0 0-.629-.234c-.114-.12-.174-.178-.289-.297.568.194.852.303 1.41.551C-.241.167-.155.111 0 0" style="fill:#171624;fill-opacity:1;fill-rule:nonzero;stroke:none;stroke-width:.358521" transform="translate(899.05 493.394)"/></g><g style="stroke-width:.358521"><path d="M0 0c.062-.084.093-.124.15-.207a28 28 0 0 0-.658-1.08 15 15 0 0 0-1.793-.406 10 10 0 0 1-.24.538c.39.191.582.292.974.493.008.248.008.371.005.615-.17-.025-.257-.035-.427-.058-.134-.264-.2-.398-.345-.671l.261.037a8 8 0 0 0-.113-.932 15 15 0 0 0-2.303-.27c-.062.125-.095.188-.159.312.431.32.646.48 1.077.797.444.906.63 1.334.962 2.179a15 15 0 0 0-.37-.006c.16.406.231.607.372 1.009 1.202-.011 1.804.022 2.993.196.223-.214.334-.317.545-.509C.742 1.604.641 1.388.418.94.16.747.029.649-.235.456c.006-.244.006-.37-.006-.622C-.234-.172 0 0 0 0" style="fill:#fff;fill-opacity:1;fill-rule:nonzero;stroke:none;stroke-width:.358521" transform="translate(894.717 491.166)"/></g><g style="stroke-width:.358521"><path d="M0 0a18 18 0 0 0-.837-1.365 58 58 0 0 0-1.305-1.14 14 14 0 0 0-1.645-.655 4 4 0 0 1-.3.503c.177.287.257.427.414.7.518.143.777.225 1.287.409a11 11 0 0 0-.224-.375c.284.103.422.157.704.274.177.289.262.431.421.71a14 14 0 0 0-1.423-.513c-.125.14-.193.211-.332.355.229.449.332.666.522 1.097.457.345.683.521 1.123.875.701.208 1.049.33 1.733.624.194-.11.29-.157.466-.249C.502 1.028.444.916.332.69A14 14 0 0 0-.862.155c.049.099.075.148.12.246-.306-.123-.459-.18-.769-.284-.09-.19-.136-.283-.233-.476.576.204.864.321 1.431.582C-.181.132-.117.087 0 0" style="fill:#fff;fill-opacity:1;fill-rule:nonzero;stroke:none;stroke-width:.358521" transform="translate(898.972 493.34)"/></g><g style="stroke-width:.358521"><path d="M0 0a15 15 0 0 0-1.468-.184 24 24 0 0 0-.739-1.49c.569.061.854.102 1.429.209.345.608.5.898.778 1.465" style="fill:#fff;fill-opacity:1;fill-rule:nonzero;stroke:none;stroke-width:.358521" transform="translate(893.935 491.672)"/></g><g style="stroke-width:.358521"><path d="M0 0c-.57-.238-.855-.344-1.434-.526-.302-.555-.47-.839-.854-1.445.565.189.847.297 1.405.536C-.484-.831-.312-.547 0 0" style="fill:#fff;fill-opacity:1;fill-rule:nonzero;stroke:none;stroke-width:.358521" transform="translate(897.762 492.647)"/></g><g style="stroke-width:.358521"><path d="M0 0a13 13 0 0 0-1.446-.529 17 17 0 0 0-.614-1.312c.579.189.87.298 1.437.547C-.345-.765-.224-.511 0 0" style="fill:#fff;fill-opacity:1;fill-rule:nonzero;stroke:none;stroke-width:.358521" transform="translate(898.977 494.669)"/></g><g style="stroke-width:.358521"><path d="M0 0c-.252-.45-.387-.681-.687-1.165A16 16 0 0 0-2.6-1.556c.264.46.383.68.609 1.117.045.004.065.007.108.014.002.207 0 .312-.01.517-.128-.016-.191-.024-.318-.035-.103-.222-.159-.332-.273-.558.103.012.155.019.255.029a21 21 0 0 0-.6-1.117 15 15 0 0 0-1.957-.164c.254.495.368.735.582 1.208.138.001.206.003.343.011.398.851.562 1.259.868 2.064-.144 0-.214 0-.357.002.164.444.241.664.389 1.106 1.242-.043 1.865-.023 3.099.132.237-.232.356-.339.582-.55a20 20 0 0 0-.506-1.123C-.043.907-.172.812-.436.622c.02-.287.025-.43.018-.721.166.037.25.056.418.099" style="fill:#171624;fill-opacity:1;fill-rule:nonzero;stroke:none;stroke-width:.358521" transform="translate(894.803 491.228)"/></g><g style="stroke-width:.358521"><path d="M0 0c-.119-.026-.179-.042-.296-.066.022.426.015.635-.019 1.05.3.217.451.326.744.542.172.366.25.545.398.9-.174.167-.264.252-.446.431a16 16 0 0 0-2.597-.137c-.071-.209-.11-.317-.185-.526.142 0 .214 0 .358.003A24 24 0 0 0-3.177-.45a8 8 0 0 0-.342-.018c-.108-.229-.168-.344-.285-.58.526.024.789.044 1.321.108.125.23.185.347.302.572-.102-.012-.156-.017-.257-.027.226.445.332.661.526 1.087.35.028.526.045.881.089a7 7 0 0 0 .026-.982c-.11-.02-.168-.031-.282-.048a18 18 0 0 0-.312-.567c.508.085.762.134 1.271.255.136.226.203.341.328.561" style="fill:#ed1c24;fill-opacity:1;fill-rule:nonzero;stroke:none;stroke-width:.358521" transform="translate(894.306 490.854)"/></g><g style="stroke-width:.358521"><path d="M0 0c-.082-.195-.127-.294-.211-.495-.173-.118-.259-.179-.431-.298a19 19 0 0 0-.962-.096c.173.405.253.603.407.999.4.022.6.038 1 .081C-.117.115-.078.075 0 0" style="fill:#171624;fill-opacity:1;fill-rule:nonzero;stroke:none;stroke-width:.358521" transform="translate(894.281 492.97)"/></g><g style="stroke-width:.358521"><path d="M0 0a23 23 0 0 0-.596-.056l-.176-.428c.237.019.356.033.592.061.077.17.113.256.18.423" style="fill:#fff;fill-opacity:1;fill-rule:nonzero;stroke:none;stroke-width:.358521" transform="translate(893.914 492.878)"/></g><g style="stroke-width:.358521"><path d="M0 0c-.287-.53-.445-.803-.817-1.382-.53-.469-.798-.703-1.351-1.167a14 14 0 0 0-1.72-.642 5 5 0 0 1-.336.527c.189.321.275.477.439.784.567.139.852.221 1.416.413a20 20 0 0 0-.217-.375c.235.08.353.121.586.212.144.24.213.359.34.591-.553-.211-.83-.301-1.392-.459-.138.153-.215.231-.368.393.226.465.329.689.519 1.14.463.343.692.514 1.14.871.742.195 1.107.311 1.826.602.207-.116.31-.172.502-.273C.457.986.397.863.272.609A13 13 0 0 0-1.067.045c.048.101.073.148.118.249a12 12 0 0 0-.633-.217l-.177-.374c.572.186.855.292 1.416.533C-.197.139-.129.091 0 0" style="fill:#171624;fill-opacity:1;fill-rule:nonzero;stroke:none;stroke-width:.358521" transform="translate(898.886 493.512)"/></g><g style="stroke-width:.358521"><path d="m0 0-.233.174c-.57-.239-.859-.345-1.437-.528-.041.034-.059.05-.101.083.109.225.163.335.261.556.154.119.228.18.379.302.305.096.459.146.765.258.061-.047.095-.07.155-.115C-.217.717-.221.709-.226.694c.296.118.45.181.745.313.039.089.057.132.098.217-.158.088-.242.134-.412.235A14 14 0 0 0-1.344.941a59 59 0 0 0-.884-.683 18 18 0 0 0-.418-.907l.269-.267c.574.166.861.263 1.431.48.03-.03.047-.045.075-.078a17 17 0 0 0-.441-.762c-.175-.147-.261-.221-.438-.364a13 13 0 0 0-.678-.249c-.048.064-.072.096-.127.157.033.055.047.083.079.135-.3-.094-.448-.139-.747-.22l-.214-.375a7 7 0 0 0 .273-.385c.584.19.875.299 1.451.542.422.348.629.524 1.035.879.301.48.434.708.678 1.156" style="fill:#ed1c24;fill-opacity:1;fill-rule:nonzero;stroke:none;stroke-width:.358521" transform="translate(898.5 493.249)"/></g><g style="stroke-width:.358521"><path d="M0 0c-.025-.013-.035-.02-.061-.032-.043.074-.062.111-.103.183.024.014.033.021.06.034C-.064.111-.043.074 0 0" style="fill:#171624;fill-opacity:1;fill-rule:nonzero;stroke:none;stroke-width:.358521" transform="translate(885.822 492.832)"/></g><g style="stroke-width:.358521"><path d="M0 0c-.02.003-.031.008-.05.012l.005.023c.02-.005.03-.01.051-.013A.04.04 0 0 0 0 0" style="fill:#fff;fill-opacity:1;fill-rule:nonzero;stroke:none;stroke-width:.358521" transform="translate(885.738 493.009)"/></g><g style="stroke-width:.358521"><path d="M0 0a2.9 2.9 0 0 1-.88.552C-3.182 1.69-4.457 2.095-6.041 2.41q-.041.01-.093.017c-.584 1.519-1.634 3.702-3.555 5.574q-.03.059-.059.12-.082.042-.152.08c-2.379 2.215-6.034 3.93-11.674 3.465-6.248-.516-11.689-4.043-12.974-9.508-2.304-1.331-2.006-4.99-.336-5.959-.899-3.299-1.319-6.71-.866-9.153.984-5.323 8.875-10.562 15.614-12.083 1.394-.98 2.957-1.375 3.986-1.301 4.441.319 8.072 4.336 9.971 7.683 1.898 2.585 3.15 5.205 3.469 6.468.625 2.499-1.204 4.862-1.946 5.975q.136.318.231.655C2.025-4.149 1.187-1.129 0 0" style="fill:#231f20;fill-opacity:1;fill-rule:nonzero;stroke:none;stroke-width:.358521" transform="translate(913.566 521.179)"/></g><g style="stroke-width:.358521"><path d="M0 0c-7.007-.579-12.425-4.483-13.985-9.994-1.157-.883-1.835-2.311-1.835-3.927v-.005c0-1.304.428-2.483 1.162-3.285-.422-1.7-.892-4.112-.892-6.458 0-.845.062-1.681.207-2.471 1.105-5.961 9.297-11.369 16.358-13.045 1.457-.961 3.202-1.492 4.61-1.39 4.801.345 8.803 4.485 10.965 8.271 2.004 2.738 3.287 5.469 3.634 6.854.118.47.172.933.172 1.381 0 1.132-1.062 3.749-1.624 4.616 2.777.802 4.422 2.057 4.896 3.739.092.321.131.638.131.942 0 1.15-.58 2.141-1.224 2.753-.334.319-.76.588-1.262.805q.03-.015.066-.03c-2.194 1.083-3.509 1.531-4.898 1.842-.878 2.065-2.041 3.825-3.457 5.243a10 10 0 0 1-.522.488C9.34-.815 5.142.425 0 0" style="fill:#231f20;fill-opacity:1;fill-rule:nonzero;stroke:none;stroke-width:.358521" transform="translate(891.886 534.13)"/></g><g style="stroke-width:.358521"><path d="M0 0c1.726-.032 5.517.154 6.935-1.198C8.353-2.547 9.277-6.6-2.157-7.368-3.28-7.443-4.963.092 0 0" style="fill:#171624;fill-opacity:1;fill-rule:nonzero;stroke:none;stroke-width:.358521" transform="translate(906.629 522.377)"/></g><g style="stroke-width:.358521"><path d="M0 0c-3.25-3.334-6.375-13.229-5.392-18.542 1.169-6.324 12.08-12.523 19.23-12.523 7.232 0 13.068 10.345 13.808 13.291.739 2.947-1.941 5.71-2.22 6.448-.277.734.832 2.025.555 3.775S22.099-2.396 19.787.091 7.119 7.306 0 0" style="fill:#fff;fill-opacity:1;fill-rule:nonzero;stroke:none;stroke-width:.358521" transform="translate(883.205 526.767)"/></g><g style="stroke-width:.358521"><path d="M0 0a.095.095 0 0 1-.058-.119c3.679-10.447 17.685-12.235 25.993-10.154 4.834 1.21 7.47 3.531 7.048 6.211a.09.09 0 0 1-.105.076c-.05-.007-.033-.07-.025-.118.399-2.537-2.303-4.826-6.965-5.993-8.241-2.064-22.133-.3-25.769 10.04C.101-.011.048.018 0 0" style="fill:#231f20;fill-opacity:1;fill-rule:nonzero;stroke:none;stroke-width:.358521" transform="translate(878.023 515.238)"/></g><g style="stroke-width:.358521"><path d="M0 0c.151-.916 2.873-6.805 8.168-5.464 1.696.429 2.369 2.135 2.494 3.117C8.396-2.047 2.221-.766 0 0" style="fill:#fff;fill-opacity:1;fill-rule:nonzero;stroke:none;stroke-width:.358521" transform="translate(890.57 518.017)"/></g><g style="stroke-width:.358521"><path d="M0 0c.092-.568 1.269-3.32 3.569-4.823 1.476-.963 3.099-1.23 4.827-.79 1.808.459 2.503 2.27 2.63 3.271l.025.182-.185.022C8.573-1.833 2.459-.562.241.203l-.293.102Zm3.772-4.515C1.86-3.268.765-1.141.452-.254c2.393-.757 7.854-1.892 10.175-2.221-.166-.926-.802-2.397-2.325-2.783-1.621-.41-3.147-.16-4.53.743" style="fill:#231f20;fill-opacity:1;fill-rule:nonzero;stroke:none;stroke-width:.358521" transform="translate(890.39 517.988)"/></g><g style="stroke-width:.358521"><path d="M0 0c.159-.86.801-3.07 3.545-3.375C4.77-3.514 6.223-1.934 6.252-1.32 4.928-1.059 1.325-.398 0 0" style="fill:#231f20;fill-opacity:1;fill-rule:nonzero;stroke:none;stroke-width:.358521" transform="translate(893.9 517.127)"/></g><g style="stroke-width:.358521"><path d="M0 0s1.314-.451 4.066-.55C2.571-1.149.493-1.258.493-1.258Z" style="fill:#fff;fill-opacity:1;fill-rule:nonzero;stroke:none;stroke-width:.358521" transform="translate(893.9 516.175)"/></g><g style="stroke-width:.358521"><path d="M0 0c.015-.587.521-3.228 1.449-3.061 1.66.298 3.02 2.755 2.404 5.178C2.834.645.986.216 0 0" style="fill:#fff;fill-opacity:1;fill-rule:nonzero;stroke:none;stroke-width:.358521" transform="translate(905.334 515.53)"/></g><g style="stroke-width:.358521"><path d="M0 0c-.996-1.444-2.847-1.847-3.74-2.041l-.148-.032.005-.155c.01-.518.374-2.493 1.084-3.069a.7.7 0 0 1 .581-.168c.732.131 1.417.64 1.929 1.435.733 1.132.965 2.618.621 3.971L.233.337Zm.045-.525c.043-.263.074-.53.074-.796 0-.895-.248-1.784-.72-2.51-.45-.696-1.061-1.16-1.684-1.273-.057-.009-.152-.011-.278.092-.54.436-.88 2.004-.941 2.646.907.198 2.498.613 3.549 1.841" style="fill:#231f20;fill-opacity:1;fill-rule:nonzero;stroke:none;stroke-width:.358521" transform="translate(909.033 517.753)"/></g><g style="stroke-width:.358521"><path d="M0 0c.04-.586.76-2.725 1.637-2.173.877.554 1.113 2.404 1.069 3.553C1.825.715.625.114 0 0" style="fill:#231f20;fill-opacity:1;fill-rule:nonzero;stroke:none;stroke-width:.358521" transform="translate(906.066 515.738)"/></g><g style="stroke-width:.358521"><path d="M0 0c.918-1.655 2.765-5.951 2.272-7.914-.524-2.091-.794-3.44-.114-4.551l.157.094c-.642 1.053-.377 2.368.136 4.412C2.961-5.924 1.13-1.657.162.09z" style="fill:#231f20;fill-opacity:1;fill-rule:nonzero;stroke:none;stroke-width:.358521" transform="translate(901.77 525.984)"/></g><g style="stroke-width:.358521"><path d="M0 0a.523.523 0 0 0-1.047 0A.522.522 0 0 0 0 0" style="fill:#231f20;fill-opacity:1;fill-rule:nonzero;stroke:none;stroke-width:.358521" transform="translate(889.785 507.58)"/></g><g style="stroke-width:.358521"><path d="M0 0a.522.522 0 1 0-1.045 0A.522.522 0 0 0 0 0" style="fill:#231f20;fill-opacity:1;fill-rule:nonzero;stroke:none;stroke-width:.358521" transform="translate(880.168 515.316)"/></g><g style="stroke-width:.358521"><path d="M0 0a.52.52 0 0 0-.522-.52.52.52 0 1 0 0 1.041A.52.52 0 0 0 0 0" style="fill:#231f20;fill-opacity:1;fill-rule:nonzero;stroke:none;stroke-width:.358521" transform="translate(888.906 504.31)"/></g><g style="stroke-width:.358521"><path d="M0 0c-8.179-.675-14.979-6.508-12.884-15.104 19.046 6.876 24.47 6.14 28.539 5.281C14.545-6.692 11.155.921 0 0" style="fill:#171624;fill-opacity:1;fill-rule:nonzero;stroke:none;stroke-width:.358521" transform="translate(891.99 532.845)"/></g><g style="stroke-width:.358521"><path d="M0 0c.841-.532 4.992-1.104 7.998-.553C11.001 0 22.604 2.531 25.563 1.059c-2.401 1.197-3.698 1.611-5.313 1.933C18.794 3.281 9.615 3.636 0 0" style="fill:#171624;fill-opacity:1;fill-rule:nonzero;stroke:none;stroke-width:.358521" transform="translate(887.274 520.597)"/></g><g style="stroke-width:.358521"><path d="M0 0a9 9 0 0 0-.452-.666c-.955.025-1.582.02-2.643.021a9 9 0 0 1-.127.679h.524c-.293 1.255-.49 1.613-1.009 2.625-.194-.019-.291-.03-.485-.055l-.278.536c.985.117 1.459.144 2.386.113.39-.217.582-.322.95-.546C-.623 1.755-.37 1.237 0 0m-2.063 3.478c-1.12.073-1.684.044-2.881-.109.242-.47.349-.665.543-1.052.201.029.3.04.504.063.397-.796.548-1.111.791-2.066a29 29 0 0 1-.526-.008c.11-.459.158-.712.238-1.329 1.239 0 2.053.014 3.168-.003.26.38.366.547.545.866-.382 1.349-.66 1.93-1.192 2.94-.454.283-.698.414-1.19.698" style="fill:#ed1c24;fill-opacity:1;fill-rule:nonzero;stroke:none;stroke-width:.358521" transform="translate(904.688 526.202)"/></g><g style="stroke-width:.358521"><path d="M0 0c-.511.02-.799.023-1.377.027-.324 1.281-.543 1.689-1.076 2.705.524.037.783.044 1.283.038C-.631 1.775-.375 1.283 0 0m-3.897 3.161c.116-.224.173-.331.276-.535.194.024.291.035.485.055.517-1.012.716-1.37 1.009-2.625h-.523c.057-.254.082-.389.129-.679 1.06-.001 1.683.005 2.64-.022.205.285.295.416.452.666C.201 1.26-.052 1.776-.562 2.729c-.369.223-.561.329-.951.545-.925.032-1.401.004-2.384-.113" style="fill:#fff;fill-opacity:1;fill-rule:nonzero;stroke:none;stroke-width:.358521" transform="translate(904.117 526.18)"/></g><g style="stroke-width:.358521"><path d="M0 0c.264.012.396.016.655.02.426-.813.62-1.211.933-2.205-.27.008-.408.011-.695.013C.604-1.187.42-.812 0 0m.633-2.481a36 36 0 0 0 1.377-.028C1.635-1.226 1.379-.733.84.261.34.268.081.26-.443.224.09-.793.311-1.201.633-2.481" style="fill:#ed1c24;fill-opacity:1;fill-rule:nonzero;stroke:none;stroke-width:.358521" transform="translate(902.107 528.69)"/></g><g style="stroke-width:.358521"><path d="M0 0a.28.28 0 0 1 .187-.345c1.873-.57 10.256-2.791 13.244-2.759a.277.277 0 0 1-.007.553C10.5-2.581 1.957-.306.349.185A.28.28 0 0 1 0 0" style="fill:#231f20;fill-opacity:1;fill-rule:nonzero;stroke:none;stroke-width:.358521" transform="translate(889.041 518.42)"/></g><g style="stroke-width:.358521"><path d="M0 0c-.318-1.161-3.535-2.261-4.248-2.205a.276.276 0 0 1-.045-.551C-3.39-2.828.123-1.657.536-.146A.278.278 0 0 1 0 0" style="fill:#231f20;fill-opacity:1;fill-rule:nonzero;stroke:none;stroke-width:.358521" transform="translate(909.111 517.92)"/></g><g style="stroke-width:.358521"><path d="M0 0c.125 2.64-1.884 4.73-4.808 4.235-3.636-.613-3.451-5.463-1.416-6.447" style="fill:#fff;fill-opacity:1;fill-rule:nonzero;stroke:none;stroke-width:.358521" transform="translate(885.023 519.521)"/></g><g style="stroke-width:.358521"><path d="M0 0c-2.459.653-10.141-.369-12.696-8.043-2.845-8.534 3.626-11.616 6.346-11.42C-.368-19.035 4.148-11.9 4.932-8.719 5.796-5.218 4.625-1.229 0 0" style="fill:#fff;fill-opacity:1;fill-rule:nonzero;stroke:none;stroke-width:.358521" transform="translate(903.762 514.304)"/></g><g style="stroke-width:.358521"><path d="M0 0c-1.496-4.485-.367-7.273.845-8.826 1.573-2.016 4.054-2.949 5.691-2.832 6.27.448 10.729 7.968 11.447 10.883.875 3.548-.35 7.687-5.061 8.939C10.163 8.897 2.526 7.588 0 0m1.136-8.598C-.021-7.119-1.093-4.448.349-.113c2.453 7.351 9.819 8.627 12.474 7.922 4.776-1.27 5.573-5.371 4.802-8.496-.701-2.842-5.035-10.167-11.115-10.605-1.5-.106-3.898.8-5.374 2.694" style="fill:#231f20;fill-opacity:1;fill-rule:nonzero;stroke:none;stroke-width:.358521" transform="translate(890.89 506.316)"/></g><g style="stroke-width:.358521"><path d="M0 0c-2.087.437-7.769-.829-8.507-4.65-.741-3.821 1.017-4.744 2.726-4.558 1.711.184 3.053 2.622 3.932 3.683C-.972-4.466 3.282-.69 0 0" style="fill:#231f20;fill-opacity:1;fill-rule:nonzero;stroke:none;stroke-width:.358521" transform="translate(905.443 507.749)"/></g><g style="stroke-width:.358521"><path d="M0 0c-.463-3.34 1.201-4.16 2.82-3.984.73.078 1.385.56 1.971 1.175C4.246-1.461 2.724-.047 0 0" style="fill:#fff;fill-opacity:1;fill-rule:nonzero;stroke:none;stroke-width:.358521" transform="translate(896.842 502.525)"/></g><g style="stroke-width:.358521"><path d="M0 0c-.215-1.563.013-2.702.677-3.384.649-.667 1.552-.723 2.194-.654.65.068 1.303.46 2 1.189l.023.022-.01.029C4.34-1.458 2.787-.01.047.041H.009Zm.74-3.318C.256-2.823.015-2.069.015-1.07c0 .311.024.652.073 1.015 3.31-.074 4.421-2.087 4.695-2.752-.674-.698-1.303-1.071-1.92-1.139-.623-.069-1.496-.013-2.123.628" style="fill:#231f20;fill-opacity:1;fill-rule:nonzero;stroke:none;stroke-width:.358521" transform="translate(896.795 502.532)"/></g><g style="stroke-width:.358521"><path d="M0 0c.403-.613 2.635-2.252 2.838-2.216.203.037 2.116 1.275 2.135 1.792.02.516-.762 1.195-1.932 1.415C1.28 1.324-.445.684 0 0" style="fill:#231f20;fill-opacity:1;fill-rule:nonzero;stroke:none;stroke-width:.358521" transform="translate(902.443 511.639)"/></g><g style="stroke-width:.358521"><path d="M0 0c.05 0 1.791-.053 1.791-.053L.198-.64Z" style="fill:#fff;fill-opacity:1;fill-rule:nonzero;stroke:none;stroke-width:.358521" transform="translate(905.976 515.216)"/></g><g style="stroke-width:.358521"><path d="M0 0a.184.184 0 0 1-.017-.259c.625-.707.622-2.07.413-3.113a.185.185 0 0 1 .364-.071c.109.547.399 2.41-.5 3.425A.184.184 0 0 1 0 0" style="fill:#231f20;fill-opacity:1;fill-rule:nonzero;stroke:none;stroke-width:.358521" transform="translate(904.863 510.466)"/></g><g style="stroke-width:.358521"><path d="M0 0a.27.27 0 0 1-.156-.358c.176-.446.197-1.35.143-1.545a.277.277 0 0 1 .536-.146C.612-1.72.575-.697.362-.156A.28.28 0 0 1 0 0" style="fill:#231f20;fill-opacity:1;fill-rule:nonzero;stroke:none;stroke-width:.358521" transform="translate(885.027 521.33)"/></g><g style="stroke-width:.358521"><path d="M0 0a.274.274 0 0 1-.094-.377C.179-.828.873-1.551 1.584-1.57a.276.276 0 1 1 .016.553c-.432.01-.995.553-1.22.924A.273.273 0 0 1 0 0" style="fill:#231f20;fill-opacity:1;fill-rule:nonzero;stroke:none;stroke-width:.358521" transform="translate(877.512 518.253)"/></g><g style="stroke-width:.358521"><path d="M0 0c-1.327-.879-2.127-1.98-2.379-3.279-.36-1.873-.168-3.232.574-4.035.691-.749 1.662-.816 2.359-.741 1.426.155 2.591 1.763 3.44 2.938l.608.81.577.628C6.32-2.467 8.05-.636 7.666.578c-.148.471-.592.786-1.317.941C4.871 1.829 2.023 1.334 0 0m-1.53-7.065c-.662.712-.824 1.961-.486 3.715.234 1.197.98 2.221 2.217 3.04 2.056 1.359 4.847 1.724 6.07 1.467.586-.123.936-.356 1.043-.689.318-1.009-1.457-2.884-2.408-3.894l-.588-.644-.625-.833C2.886-6.021 1.777-7.553.511-7.689c-.609-.066-1.457-.009-2.041.624" style="fill:#231f20;fill-opacity:1;fill-rule:nonzero;stroke:none;stroke-width:.358521" transform="translate(899.133 506.412)"/></g><g style="stroke-width:.358521"><path d="M0 0a.24.24 0 0 0-.243-.242A.24.24 0 0 0-.487 0c0 .133.108.244.244.244A.245.245 0 0 0 0 0" style="fill:#fff;fill-opacity:1;fill-rule:nonzero;stroke:none;stroke-width:.358521" transform="translate(898.092 514.426)"/></g><g style="stroke-width:.358521"><path d="M0 0a.245.245 0 0 0-.491 0c0 .135.111.242.247.242A.244.244 0 0 0 0 0" style="fill:#fff;fill-opacity:1;fill-rule:nonzero;stroke:none;stroke-width:.358521" transform="translate(907.642 514.089)"/></g><g style="stroke-width:.358521"><path d="M0 0c-.136-.067.551-1.258 1.53-1.467.974-.209 2.423.545 2.345.676-.076.133-1.318-.383-2.146-.168C.657-.687.137.068 0 0" style="fill:#231f20;fill-opacity:1;fill-rule:nonzero;stroke:none;stroke-width:.358521" transform="translate(896.531 498.58)"/></g></g></g></svg>